<svg width="16" height="16" viewBox="0 0 16 16" fill="none" xmlns="http://www.w3.org/2000/svg">
<path fill-rule="evenodd" clip-rule="evenodd" d="M0.180771 3.89776C0.237928 3.84272 0.305829 3.79906 0.380583 3.76927C0.455337 3.73947 0.535477 3.72414 0.616412 3.72414C0.697347 3.72414 0.777487 3.73947 0.852241 3.76927C0.926996 3.79906 0.994896 3.84272 1.05205 3.89776L8.00016 10.5723L14.9483 3.89776C15.0638 3.78679 15.2205 3.72445 15.3839 3.72445C15.5473 3.72445 15.704 3.78679 15.8196 3.89776C15.9351 4.00873 16 4.15924 16 4.31618C16 4.47311 15.9351 4.62362 15.8196 4.73459L8.4358 11.8264C8.37865 11.8814 8.31074 11.9251 8.23599 11.9549C8.16124 11.9847 8.0811 12 8.00016 12C7.91923 12 7.83909 11.9847 7.76433 11.9549C7.68958 11.9251 7.62168 11.8814 7.56452 11.8264L0.180771 4.73459C0.123469 4.6797 0.0780062 4.61448 0.0469865 4.54268C0.0159669 4.47088 -3.32473e-07 4.39391 -3.35871e-07 4.31618C-3.39268e-07 4.23844 0.0159668 4.16147 0.0469865 4.08967C0.0780062 4.01787 0.123469 3.95266 0.180771 3.89776Z" fill="#5C5C5C"/>
</svg>
