<svg width="16" height="16" viewBox="0 0 16 16" fill="none" xmlns="http://www.w3.org/2000/svg">
<path fill-rule="evenodd" clip-rule="evenodd" d="M15.8192 12.1022C15.7621 12.1573 15.6942 12.2009 15.6194 12.2307C15.5447 12.2605 15.4645 12.2759 15.3836 12.2759C15.3027 12.2759 15.2225 12.2605 15.1478 12.2307C15.073 12.2009 15.0051 12.1573 14.9479 12.1022L7.99984 5.42769L1.05173 12.1022C0.93619 12.2132 0.779485 12.2756 0.616089 12.2756C0.452692 12.2756 0.295987 12.2132 0.180447 12.1022C0.0649077 11.9913 -3.4273e-07 11.8408 -3.35871e-07 11.6838C-3.29011e-07 11.5269 0.0649077 11.3764 0.180447 11.2654L7.5642 4.17362C7.62135 4.11859 7.68926 4.07492 7.76401 4.04513C7.83876 4.01533 7.9189 4 7.99984 4C8.08077 4 8.16091 4.01533 8.23567 4.04513C8.31042 4.07492 8.37832 4.11859 8.43548 4.17362L15.8192 11.2654C15.8765 11.3203 15.922 11.3855 15.953 11.4573C15.984 11.5291 16 11.6061 16 11.6838C16 11.7616 15.984 11.8385 15.953 11.9103C15.922 11.9821 15.8765 12.0473 15.8192 12.1022Z" fill="#5C5C5C"/>
</svg>
