<svg width="20" height="20" viewBox="0 0 20 20" fill="none" xmlns="http://www.w3.org/2000/svg">
<g clip-path="url(#clip0_48_243)">
<path d="M5.71427 9.99997H4.28571C3.89121 9.99997 3.57141 10.3198 3.57141 10.7143C3.57141 11.1088 3.89121 11.4286 4.28571 11.4286H5.71427C6.10877 11.4286 6.42857 11.1088 6.42857 10.7143C6.42857 10.3198 6.10877 9.99997 5.71427 9.99997Z" fill="#5C5C5C"/>
<path d="M10.7143 9.99997H9.28572C8.89122 9.99997 8.57142 10.3198 8.57142 10.7143C8.57142 11.1088 8.89122 11.4286 9.28572 11.4286H10.7143C11.1088 11.4286 11.4286 11.1088 11.4286 10.7143C11.4286 10.3198 11.1088 9.99997 10.7143 9.99997Z" fill="#5C5C5C"/>
<path d="M15.7143 9.99997H14.2857C13.8912 9.99997 13.5714 10.3198 13.5714 10.7143C13.5714 11.1088 13.8912 11.4286 14.2857 11.4286H15.7143C16.1088 11.4286 16.4286 11.1088 16.4286 10.7143C16.4285 10.3198 16.1088 9.99997 15.7143 9.99997Z" fill="#5C5C5C"/>
<path d="M5.71427 12.8571H4.28571C3.89121 12.8571 3.57141 13.1769 3.57141 13.5714C3.57141 13.9659 3.89121 14.2857 4.28571 14.2857H5.71427C6.10877 14.2857 6.42857 13.9659 6.42857 13.5714C6.42857 13.1769 6.10877 12.8571 5.71427 12.8571Z" fill="#5C5C5C"/>
<path d="M10.7143 12.8571H9.28572C8.89122 12.8571 8.57142 13.1769 8.57142 13.5714C8.57142 13.9659 8.89122 14.2857 9.28572 14.2857H10.7143C11.1088 14.2857 11.4286 13.9659 11.4286 13.5714C11.4286 13.1769 11.1088 12.8571 10.7143 12.8571Z" fill="#5C5C5C"/>
<path d="M15.7143 12.8571H14.2857C13.8912 12.8571 13.5714 13.1769 13.5714 13.5714C13.5714 13.9659 13.8912 14.2857 14.2857 14.2857H15.7143C16.1088 14.2857 16.4286 13.9659 16.4286 13.5714C16.4285 13.1769 16.1088 12.8571 15.7143 12.8571Z" fill="#5C5C5C"/>
<path d="M5.71427 15.7143H4.28571C3.89121 15.7143 3.57141 16.0341 3.57141 16.4286C3.57141 16.8231 3.89121 17.1428 4.28571 17.1428H5.71427C6.10877 17.1428 6.42857 16.823 6.42857 16.4285C6.42857 16.034 6.10877 15.7143 5.71427 15.7143Z" fill="#5C5C5C"/>
<path d="M10.7143 15.7143H9.28572C8.89122 15.7143 8.57142 16.0341 8.57142 16.4286C8.57142 16.8231 8.89122 17.1429 9.28572 17.1429H10.7143C11.1088 17.1429 11.4286 16.8231 11.4286 16.4286C11.4286 16.0341 11.1088 15.7143 10.7143 15.7143Z" fill="#5C5C5C"/>
<path d="M15.7143 15.7143H14.2857C13.8912 15.7143 13.5714 16.0341 13.5714 16.4286C13.5714 16.8231 13.8912 17.1429 14.2857 17.1429H15.7143C16.1088 17.1429 16.4286 16.8231 16.4286 16.4286C16.4286 16.0341 16.1088 15.7143 15.7143 15.7143Z" fill="#5C5C5C"/>
<path d="M17.8571 2.14286H15.7143V0.714299C15.7143 0.319796 15.3945 0 15 0C14.6055 0 14.2857 0.319796 14.2857 0.714299V2.14286H5.71427V0.714299C5.71427 0.319796 5.39447 0 5.00001 0C4.60555 0 4.28571 0.319796 4.28571 0.714299V2.14286H2.14286C0.959388 2.14286 0 3.10224 0 4.28571V17.8571C0 19.0406 0.959388 20 2.14286 20H17.8571C19.0406 20 20 19.0406 20 17.8571V4.28571C20 3.10224 19.0406 2.14286 17.8571 2.14286ZM18.5714 17.8571C18.5714 18.2516 18.2516 18.5714 17.8571 18.5714H2.14286C1.74835 18.5714 1.42856 18.2516 1.42856 17.8571V8.57142H18.5714V17.8571ZM18.5714 7.14287H1.42856V4.28571C1.42856 3.89121 1.74835 3.57141 2.14286 3.57141H4.28571V4.99997C4.28571 5.39447 4.60551 5.71427 5.00001 5.71427C5.39451 5.71427 5.71431 5.39447 5.71431 4.99997V3.57141H14.2857V4.99997C14.2857 5.39447 14.6055 5.71427 15 5.71427C15.3945 5.71427 15.7143 5.39447 15.7143 4.99997V3.57141H17.8572C18.2517 3.57141 18.5715 3.89121 18.5715 4.28571L18.5714 7.14287Z" fill="#5C5C5C"/>
</g>
<defs>
<clipPath id="clip0_48_243">
<rect width="20" height="20" fill="white"/>
</clipPath>
</defs>
</svg>
