<svg width="35" height="35" viewBox="0 0 35 35" fill="none" xmlns="http://www.w3.org/2000/svg">
<path fill-rule="evenodd" clip-rule="evenodd" d="M18.958 4.375C19.7634 4.375 20.4163 5.02793 20.4163 5.83333V29.1667C20.4163 29.9721 19.7634 30.625 18.958 30.625H16.0413C15.2359 30.625 14.583 29.9721 14.583 29.1667V5.83333C14.583 5.02793 15.2359 4.375 16.0413 4.375H18.958ZM27.708 18.9583C28.5134 18.9583 29.1663 19.6112 29.1663 20.4167V29.1667C29.1663 29.9721 28.5134 30.625 27.708 30.625H24.7913C23.9859 30.625 23.333 29.9721 23.333 29.1667V20.4167C23.333 19.6112 23.9859 18.9583 24.7913 18.9583H27.708ZM11.6663 14.5833C11.6663 13.7779 11.0134 13.125 10.208 13.125H7.29134C6.48593 13.125 5.83301 13.7779 5.83301 14.5833V29.1667C5.83301 29.9721 6.48593 30.625 7.29134 30.625H10.208C11.0134 30.625 11.6663 29.9721 11.6663 29.1667V14.5833Z" fill="#5C5C5C"/>
</svg>
