<svg width="35" height="35" viewBox="0 0 35 35" fill="none" xmlns="http://www.w3.org/2000/svg">
<path d="M17.0881 0C9.38365 0 3 6.38365 3 14.0881V25.0943C3 26.8553 4.32075 28.1761 6.08176 28.1761H8.28302C10.044 28.1761 11.3648 26.8553 11.3648 25.0943V18.4906C11.3648 16.7296 10.044 15.4088 8.28302 15.4088H6.96226V14.0881C6.96226 8.36478 11.5849 3.96226 17.0881 3.96226C22.5912 3.96226 27.2138 8.58491 27.2138 14.0881V15.4088H25.8931C24.1321 15.4088 22.8113 16.7296 22.8113 18.4906V25.0943C22.8113 26.8553 24.1321 28.1761 25.8931 28.1761H27.2138C26.7736 29.0566 25.8931 29.9371 24.7925 29.9371H20.6101C19.9497 29.2767 19.2893 28.8365 18.1887 28.8365H15.9874C14.2264 28.8365 12.9057 30.1572 12.9057 31.9182C12.9057 33.6792 14.2264 35 15.9874 35H18.1887C19.0692 35 19.9497 34.5597 20.6101 33.8994H24.7925C28.3145 33.8994 31.1761 31.0377 31.1761 27.5157V14.3082C31.1761 6.38365 24.7925 0 17.0881 0Z" fill="white" fill-opacity="0.2"/>
</svg>
