<svg width="35" height="35" viewBox="0 0 35 35" fill="none" xmlns="http://www.w3.org/2000/svg">
<path d="M34.4444 15.8211L18.2569 0.304069C17.834 -0.101356 17.166 -0.101356 16.7431 0.304069L0.539583 15.8371C0.196875 16.1798 0 16.6523 0 17.135C0 18.1399 0.818125 18.958 1.82292 18.958H4.375V32.8125C4.375 34.02 5.355 35 6.5625 35H12.7604C13.3642 35 13.8542 34.51 13.8542 33.9062V24.4269C13.8542 24.2271 14.0175 24.0623 14.2188 24.0623H20.7813C20.981 24.0623 21.1458 24.2271 21.1458 24.4269V33.9062C21.1458 34.51 21.6358 35 22.2396 35H28.4375C29.645 35 30.625 34.02 30.625 32.8125V18.958H33.1771C34.1819 18.958 35 18.1399 35 17.135C35 16.6523 34.8031 16.1798 34.4444 15.8211Z" fill="white"/>
</svg>
