<svg width="35" height="35" viewBox="0 0 35 35" fill="none" xmlns="http://www.w3.org/2000/svg">
<path fill-rule="evenodd" clip-rule="evenodd" d="M4.37533 5.8335C3.56992 5.8335 2.91699 6.48642 2.91699 7.29183V10.2085C2.91699 11.0139 3.56992 11.6668 4.37533 11.6668H7.29199C8.0974 11.6668 8.75033 11.0139 8.75033 10.2085V7.29183C8.75033 6.48642 8.0974 5.8335 7.29199 5.8335H4.37533ZM13.1253 5.8335C12.3199 5.8335 11.667 6.48642 11.667 7.29183V10.2085C11.667 11.0139 12.3199 11.6668 13.1253 11.6668H30.6253C31.4308 11.6668 32.0837 11.0139 32.0837 10.2085V7.29183C32.0837 6.48642 31.4308 5.8335 30.6253 5.8335H13.1253ZM2.91699 16.0418C2.91699 15.2364 3.56992 14.5835 4.37533 14.5835H7.29199C8.0974 14.5835 8.75033 15.2364 8.75033 16.0418V18.9585C8.75033 19.7639 8.0974 20.4168 7.29199 20.4168H4.37533C3.56992 20.4168 2.91699 19.7639 2.91699 18.9585V16.0418ZM13.1253 14.5835C12.3199 14.5835 11.667 15.2364 11.667 16.0418V18.9585C11.667 19.7639 12.3199 20.4168 13.1253 20.4168H30.6253C31.4308 20.4168 32.0837 19.7639 32.0837 18.9585V16.0418C32.0837 15.2364 31.4308 14.5835 30.6253 14.5835H13.1253ZM2.91699 24.7918C2.91699 23.9864 3.56992 23.3335 4.37533 23.3335H7.29199C8.0974 23.3335 8.75033 23.9864 8.75033 24.7918V27.7085C8.75033 28.5139 8.0974 29.1668 7.29199 29.1668H4.37533C3.56992 29.1668 2.91699 28.5139 2.91699 27.7085V24.7918ZM13.1253 23.3335C12.3199 23.3335 11.667 23.9864 11.667 24.7918V27.7085C11.667 28.5139 12.3199 29.1668 13.1253 29.1668H30.6253C31.4308 29.1668 32.0837 28.5139 32.0837 27.7085V24.7918C32.0837 23.9864 31.4308 23.3335 30.6253 23.3335H13.1253Z" fill="#5C5C5C"/>
</svg>
