<svg width="35" height="35" viewBox="0 0 35 35" fill="none" xmlns="http://www.w3.org/2000/svg">
<path fill-rule="evenodd" clip-rule="evenodd" d="M4.37533 5.83325C3.56992 5.83325 2.91699 6.48618 2.91699 7.29159V10.2083C2.91699 11.0137 3.56992 11.6666 4.37533 11.6666H7.29199C8.0974 11.6666 8.75033 11.0137 8.75033 10.2083V7.29159C8.75033 6.48618 8.0974 5.83325 7.29199 5.83325H4.37533ZM13.1253 5.83325C12.3199 5.83325 11.667 6.48618 11.667 7.29159V10.2083C11.667 11.0137 12.3199 11.6666 13.1253 11.6666H30.6253C31.4308 11.6666 32.0837 11.0137 32.0837 10.2083V7.29159C32.0837 6.48618 31.4308 5.83325 30.6253 5.83325H13.1253ZM2.91699 16.0416C2.91699 15.2361 3.56992 14.5833 4.37533 14.5833H7.29199C8.0974 14.5833 8.75033 15.2361 8.75033 16.0416V18.9583C8.75033 19.7637 8.0974 20.4166 7.29199 20.4166H4.37533C3.56992 20.4166 2.91699 19.7637 2.91699 18.9583V16.0416ZM13.1253 14.5833C12.3199 14.5833 11.667 15.2361 11.667 16.0416V18.9583C11.667 19.7637 12.3199 20.4166 13.1253 20.4166H30.6253C31.4308 20.4166 32.0837 19.7637 32.0837 18.9583V16.0416C32.0837 15.2361 31.4308 14.5833 30.6253 14.5833H13.1253ZM2.91699 24.7916C2.91699 23.9861 3.56992 23.3333 4.37533 23.3333H7.29199C8.0974 23.3333 8.75033 23.9861 8.75033 24.7916V27.7083C8.75033 28.5137 8.0974 29.1666 7.29199 29.1666H4.37533C3.56992 29.1666 2.91699 28.5137 2.91699 27.7083V24.7916ZM13.1253 23.3333C12.3199 23.3333 11.667 23.9861 11.667 24.7916V27.7083C11.667 28.5137 12.3199 29.1666 13.1253 29.1666H30.6253C31.4308 29.1666 32.0837 28.5137 32.0837 27.7083V24.7916C32.0837 23.9861 31.4308 23.3333 30.6253 23.3333H13.1253Z" fill="white"/>
</svg>
