<svg width="35" height="35" viewBox="0 0 35 35" fill="none" xmlns="http://www.w3.org/2000/svg">
<path d="M30.9556 3.98844C30.5667 2.82688 29.4778 2 28.1944 2H6.80556C5.52222 2 4.45278 2.82688 4.04444 3.98844L0 15.7812V31.5312C0 32.6141 0.875 33.5 1.94444 33.5H3.88889C4.95833 33.5 5.83333 32.6141 5.83333 31.5312V29.5625H29.1667V31.5312C29.1667 32.6141 30.0417 33.5 31.1111 33.5H33.0556C34.125 33.5 35 32.6141 35 31.5312V15.7812L30.9556 3.98844ZM6.80556 23.6562C5.19167 23.6562 3.88889 22.3372 3.88889 20.7031C3.88889 19.0691 5.19167 17.75 6.80556 17.75C8.41944 17.75 9.72222 19.0691 9.72222 20.7031C9.72222 22.3372 8.41944 23.6562 6.80556 23.6562ZM28.1944 23.6562C26.5806 23.6562 25.2778 22.3372 25.2778 20.7031C25.2778 19.0691 26.5806 17.75 28.1944 17.75C29.8083 17.75 31.1111 19.0691 31.1111 20.7031C31.1111 22.3372 29.8083 23.6562 28.1944 23.6562ZM3.88889 13.8125L6.80556 4.95312H28.1944L31.1111 13.8125H3.88889Z" fill="white"/>
</svg>
