<?xml version="1.0" encoding="utf-8"?>
<!-- Generator: Adobe Illustrator 16.0.0, SVG Export Plug-In . SVG Version: 6.00 Build 0)  -->
<!DOCTYPE svg PUBLIC "-//W3C//DTD SVG 1.1//EN" "http://www.w3.org/Graphics/SVG/1.1/DTD/svg11.dtd">
<svg version="1.1" id="레이어_1" xmlns="http://www.w3.org/2000/svg" xmlns:xlink="http://www.w3.org/1999/xlink" x="0px"
	 y="0px" width="16px" height="16px" viewBox="0 0 16 16" enable-background="new 0 0 16 16" xml:space="preserve">
<path fill="#686971" d="M11,1C9.896,1,9,1.896,9,3v4c1.104,0,2,0.896,2,2v5c0,1.104-0.896,2-2,2H3c-1.104,0-2-0.896-2-2V9
	c0-1.104,0.896-2,2-2h5V3c0-1.657,1.344-3,3-3s3,1.343,3,3v4c0,0.276-0.224,0.5-0.5,0.5S13,7.276,13,7V3C13,1.896,12.104,1,11,1z
	 M3,8C2.448,8,2,8.448,2,9v5c0,0.553,0.448,1,1,1h6c0.553,0,1-0.447,1-1V9c0-0.552-0.447-1-1-1H3z"/>
</svg>
