<svg width="50" height="50" viewBox="0 0 50 50" fill="none" xmlns="http://www.w3.org/2000/svg">
<circle cx="25" cy="25" r="25" fill="#949A9B"/>
<mask id="mask0_23_144" style="mask-type:alpha" maskUnits="userSpaceOnUse" x="0" y="0" width="50" height="50">
<circle cx="25" cy="25" r="25" fill="#1F2360"/>
</mask>
<g mask="url(#mask0_23_144)">
<path fill-rule="evenodd" clip-rule="evenodd" d="M30 19.3749C30 22.0213 27.8547 24.1666 25.2083 24.1666C22.562 24.1666 20.4167 22.0213 20.4167 19.3749C20.4167 16.7286 22.562 14.5833 25.2083 14.5833C27.8547 14.5833 30 16.7286 30 19.3749ZM32.5 19.3749C32.5 23.402 29.2354 26.6666 25.2083 26.6666C21.1813 26.6666 17.9167 23.402 17.9167 19.3749C17.9167 15.3478 21.1813 12.0833 25.2083 12.0833C29.2354 12.0833 32.5 15.3478 32.5 19.3749ZM39.1667 45.4166C39.1667 53.2406 32.824 59.5833 25 59.5833C17.176 59.5833 10.8333 53.2406 10.8333 45.4166C10.8333 37.5926 17.176 31.2499 25 31.2499C32.824 31.2499 39.1667 37.5926 39.1667 45.4166ZM41.6667 45.4166C41.6667 54.6213 34.2047 62.0833 25 62.0833C15.7953 62.0833 8.33333 54.6213 8.33333 45.4166C8.33333 36.2118 15.7953 28.7499 25 28.7499C34.2047 28.7499 41.6667 36.2118 41.6667 45.4166Z" fill="white"/>
</g>
</svg>
